<svg width="22" height="22" viewBox="0 0 22 22" fill="none" xmlns="http://www.w3.org/2000/svg">
<path d="M14.6608 10.9887L16.4386 12.7514L19.9918 9.22593C20.9343 8.29075 21.4638 7.02237 21.4638 5.69982C21.4638 4.37727 20.9343 3.10888 19.9918 2.1737C19.5251 1.71064 18.9711 1.34333 18.3613 1.09272C17.7516 0.842119 17.098 0.713135 16.438 0.713135C15.1051 0.713135 13.8267 1.23852 12.8842 2.1737L9.33105 5.69919L11.1076 7.46319L14.6608 3.93645C15.1322 3.46877 15.7714 3.20603 16.438 3.20603C17.1046 3.20603 17.7439 3.46877 18.2152 3.93645C18.6866 4.40412 18.9514 5.03842 18.9514 5.69982C18.9514 6.36121 18.6866 6.99551 18.2152 7.46319L14.6608 10.9887Z" fill="white"/>
<path d="M11.1077 14.5153L12.8843 16.2781L9.33109 19.8036C8.38856 20.7387 7.11022 21.2641 5.77729 21.2641C4.44436 21.2641 3.16602 20.7387 2.22349 19.8036C1.28097 18.8684 0.751465 17.6 0.751465 16.2774C0.751465 14.9549 1.28097 13.6865 2.22349 12.7513L5.77666 9.22583L7.5545 10.9886L4.00008 14.5153C3.5289 14.983 3.26426 15.6172 3.26438 16.2785C3.2645 16.9398 3.52936 17.5739 4.00071 18.0414C4.47205 18.5089 5.11127 18.7715 5.77773 18.7714C6.4442 18.7713 7.08332 18.5085 7.5545 18.0408L11.1077 14.5141V14.5153Z" fill="white"/>
<path d="M14.6621 9.22601C14.8978 8.99209 15.0303 8.67482 15.0303 8.34401C15.0303 8.0132 14.8978 7.69593 14.6621 7.46201C14.4263 7.22809 14.1066 7.09668 13.7731 7.09668C13.4397 7.09668 13.12 7.22809 12.8842 7.46201L7.55447 12.7515C7.43447 12.8665 7.33875 13.0041 7.2729 13.1562C7.20706 13.3082 7.1724 13.4718 7.17095 13.6374C7.1695 13.8029 7.20129 13.967 7.26446 14.1202C7.32763 14.2735 7.42093 14.4126 7.5389 14.5297C7.65687 14.6467 7.79715 14.7393 7.95156 14.802C8.10597 14.8647 8.27141 14.8962 8.43824 14.8948C8.60507 14.8933 8.76993 14.859 8.92322 14.7936C9.07651 14.7283 9.21515 14.6333 9.33105 14.5142L14.6608 9.22601H14.6621Z" fill="white"/>
</svg>
